<?xml version="1.0" encoding="UTF-8" standalone="no"?><svg xmlns="http://www.w3.org/2000/svg" xmlns:xlink="http://www.w3.org/1999/xlink" contentScriptType="application/ecmascript" contentStyleType="text/css" height="230px" preserveAspectRatio="none" style="width:212px;height:230px;" version="1.1" viewBox="0 0 212 230" width="212px" zoomAndPan="magnify"><defs><filter height="300%" id="figi187yebf3x" width="300%" x="-1" y="-1"><feGaussianBlur result="blurOut" stdDeviation="2.0"/><feColorMatrix in="blurOut" result="blurOut2" type="matrix" values="0 0 0 0 0 0 0 0 0 0 0 0 0 0 0 0 0 0 .4 0"/><feOffset dx="4.0" dy="4.0" in="blurOut2" result="blurOut3"/><feBlend in="SourceGraphic" in2="blurOut3" mode="normal"/></filter></defs><g><ellipse cx="104" cy="20" fill="#000000" filter="url(#figi187yebf3x)" rx="10" ry="10" style="stroke: none; stroke-width: 1.0;"/><rect fill="#FEFECE" filter="url(#figi187yebf3x)" height="33.9688" rx="12.5" ry="12.5" style="stroke: #A80036; stroke-width: 1.5;" width="82" x="63" y="94"/><text fill="#000000" font-family="sans-serif" font-size="12" lengthAdjust="spacingAndGlyphs" textLength="62" x="73" y="115.1387">read data</text><rect fill="#FEFECE" filter="url(#figi187yebf3x)" height="33.9688" rx="12.5" ry="12.5" style="stroke: #A80036; stroke-width: 1.5;" width="140" x="34" y="162.9688"/><text fill="#000000" font-family="sans-serif" font-size="12" lengthAdjust="spacingAndGlyphs" textLength="120" x="44" y="184.1074">generate diagrams</text><polygon fill="#FEFECE" filter="url(#figi187yebf3x)" points="61.5,50,146.5,50,158.5,62,146.5,74,61.5,74,49.5,62,61.5,50" style="stroke: #A80036; stroke-width: 1.5;"/><text fill="#000000" font-family="sans-serif" font-size="11" lengthAdjust="spacingAndGlyphs" textLength="85" x="61.5" y="65.8081">data available?</text><ellipse cx="24" cy="104" fill="none" filter="url(#figi187yebf3x)" rx="10" ry="10" style="stroke: #000000; stroke-width: 1.0;"/><ellipse cx="24.5" cy="104.5" fill="#000000" filter="url(#figi187yebf3x)" rx="6" ry="6" style="stroke: none; stroke-width: 1.0;"/><line style="stroke: #A80036; stroke-width: 1.5;" x1="104" x2="104" y1="127.9688" y2="162.9688"/><polygon fill="#A80036" points="100,152.9688,104,162.9688,108,152.9688,104,156.9688" style="stroke: #A80036; stroke-width: 1.0;"/><line style="stroke: #A80036; stroke-width: 1.5;" x1="104" x2="104" y1="74" y2="94"/><polygon fill="#A80036" points="100,84,104,94,108,84,104,88" style="stroke: #A80036; stroke-width: 1.0;"/><line style="stroke: #A80036; stroke-width: 1.5;" x1="104" x2="104" y1="196.9375" y2="206.9375"/><line style="stroke: #A80036; stroke-width: 1.5;" x1="104" x2="186" y1="206.9375" y2="206.9375"/><polygon fill="#A80036" points="182,143.4688,186,133.4688,190,143.4688,186,139.4688" style="stroke: #A80036; stroke-width: 1.5;"/><line style="stroke: #A80036; stroke-width: 1.5;" x1="186" x2="186" y1="62" y2="206.9375"/><line style="stroke: #A80036; stroke-width: 1.5;" x1="186" x2="158.5" y1="62" y2="62"/><polygon fill="#A80036" points="168.5,58,158.5,62,168.5,66,164.5,62" style="stroke: #A80036; stroke-width: 1.0;"/><line style="stroke: #A80036; stroke-width: 1.5;" x1="49.5" x2="24" y1="62" y2="62"/><line style="stroke: #A80036; stroke-width: 1.5;" x1="24" x2="24" y1="62" y2="94"/><polygon fill="#A80036" points="20,84,24,94,28,84,24,88" style="stroke: #A80036; stroke-width: 1.0;"/><line style="stroke: #A80036; stroke-width: 1.5;" x1="104" x2="104" y1="30" y2="50"/><polygon fill="#A80036" points="100,40,104,50,108,40,104,44" style="stroke: #A80036; stroke-width: 1.0;"/><!--
@startuml
    start
    while (data available?)
    :read data;
    :generate diagrams;
    endwhile
    stop
@enduml

PlantUML version 1.2017.15(Mon Jul 03 19:45:34 EAT 2017)
(GPL source distribution)
Java Runtime: OpenJDK Runtime Environment
JVM: OpenJDK 64-Bit Server VM
Java Version: 11.0.6+10-post-Ubuntu-1ubuntu118.04.1
Operating System: Linux
OS Version: 4.15.0-88-generic
Default Encoding: UTF-8
Language: en
Country: US
--></g></svg>